<?xml version="1.0" encoding="UTF-8"?>
<svg width="13px" height="16px" viewBox="0 0 13 16" version="1.1" xmlns="http://www.w3.org/2000/svg" xmlns:xlink="http://www.w3.org/1999/xlink">
    <!-- Generator: Sketch 49 (51002) - http://www.bohemiancoding.com/sketch -->
    <title>DOWNLOAD ICON</title>
    <desc>Created with Sketch.</desc>
    <defs></defs>
    <g id="Symbols" stroke="none" stroke-width="1" fill="none" fill-rule="evenodd">
        <g id="DL-BUTTON" transform="translate(-18.000000, -8.000000)" fill="#8093A7">
            <g id="DOWNLOAD-ICON">
                <path d="M30,12 L28.5,12 L28.5,13 L29.5,13 C29.776,13 30,13.224 30,13.5 L30,22.5 C30,22.776 29.776,23 29.5,23 L19.5,23 C19.225,23 19,22.776 19,22.5 L19,13.5 C19,13.224 19.225,13 19.5,13 L20.5,13 L20.5,12 L19,12 C18.448,12 18,12.447 18,13 L18,23 C18,23.552 18.448,24 19,24 L30,24 C30.553,24 31,23.552 31,23 L31,13 C31,12.447 30.553,12 30,12 Z M24.097,19.787 C24.113,19.811 24.123,19.837 24.144,19.857 C24.24,19.954 24.368,20.001 24.495,19.999 C24.497,19.999 24.498,20 24.5,20 C24.502,20 24.504,19.999 24.506,19.999 C24.633,20.001 24.761,19.954 24.857,19.857 C24.878,19.837 24.887,19.812 24.902,19.789 L27.357,17.333 C27.549,17.143 27.549,16.833 27.357,16.644 C27.167,16.452 26.858,16.452 26.667,16.644 L25,18.311 L25,8.5 C25,8.224 24.776,8 24.5,8 C24.225,8 24,8.224 24,8.5 L24,18.31 L22.334,16.644 C22.143,16.452 21.834,16.452 21.644,16.644 C21.452,16.833 21.452,17.143 21.644,17.333 L24.097,19.787 Z"></path>
            </g>
        </g>
    </g>
</svg>